<?xml version="1.0" encoding="UTF-8"?>
<svg version="1.1" xmlns="http://www.w3.org/2000/svg" width="250" height="250">
<path d="M0 0 C82.5 0 165 0 250 0 C250 82.5 250 165 250 250 C167.5 250 85 250 0 250 C0 167.5 0 85 0 0 Z " fill="#B2D9BB" transform="translate(0,0)"/>
<path d="M0 0 C0.87333984 -0.020625 1.74667969 -0.04125 2.64648438 -0.0625 C14.47064232 -0.13314471 24.94037797 5.57883335 33.65234375 13.42578125 C43.04175574 23.74308807 46.29435913 34.63924046 45.84765625 48.23046875 C44.05941548 71.58516212 23.35197455 94.46514207 9.8125 112.25 C9.22509033 113.03415283 8.63768066 113.81830566 8.0324707 114.6262207 C7.47519287 115.34769287 6.91791504 116.06916504 6.34375 116.8125 C5.85455078 117.45316406 5.36535156 118.09382813 4.86132812 118.75390625 C3.05664426 120.49714438 1.76100633 120.86436686 -0.6875 121.25 C-12.19953248 109.06078914 -21.66657973 95.24751141 -30.54345703 81.07275391 C-31.51557597 79.52391908 -32.50410746 77.98540486 -33.49609375 76.44921875 C-41.19856824 64.2252917 -46.06004944 51.84319806 -44.6875 37.25 C-41.54955233 24.12127722 -34.59577968 14.1473192 -23.6875 6.25 C-15.63237511 1.89850492 -9.05926937 0.05232791 0 0 Z " fill="#FB7F6F" transform="translate(124.6875,41.75)"/>
<path d="M0 0 C13.49490414 7.61037737 22.47479368 18.91827638 27.16015625 33.6796875 C31.66580593 52.31115779 23.57956529 69.09779564 14.16015625 84.6796875 C-10.74002746 124.12977936 -10.74002746 124.12977936 -19.83984375 128.6796875 C-26.60328125 129.59676377 -26.60328125 129.59676377 -29.56152344 127.40283203 C-33.88876634 122.87045149 -37.72934206 118.12974898 -41.40234375 113.0546875 C-41.99805176 112.23637451 -42.59375977 111.41806152 -43.20751953 110.57495117 C-53.55099348 96.25540788 -63.74327896 81.92333202 -70.83984375 65.6796875 C-71.29101562 64.66003906 -71.7421875 63.64039062 -72.20703125 62.58984375 C-75.38829557 54.41728541 -75.48867236 46.32719012 -74.83984375 37.6796875 C-74.34484375 37.1846875 -74.34484375 37.1846875 -73.83984375 36.6796875 C-73.64325567 35.26425335 -73.45796829 33.84724719 -73.27734375 32.4296875 C-71.0747918 20.97312995 -63.13397498 11.04141002 -53.72265625 4.51953125 C-48.53108396 1.13957441 -44.1269811 -1.65850857 -37.83984375 -2.3203125 C-37.83984375 -2.9803125 -37.83984375 -3.6403125 -37.83984375 -4.3203125 C-26.07855796 -8.2407411 -10.86342574 -5.05067111 0 0 Z M-60.015625 19.25 C-67.4207838 29.11297382 -69.73200562 39.51118468 -68.83984375 51.6796875 C-64.95723194 76.28237619 -43.42670365 101.3632547 -27.83984375 119.6796875 C-27.36973877 120.26516357 -26.89963379 120.85063965 -26.4152832 121.45385742 C-24.90471916 122.91019444 -24.90471916 122.91019444 -22.81445312 122.54101562 C-19.4348561 121.06682939 -17.53117382 118.03473084 -15.33984375 115.1796875 C-14.81938477 114.51404785 -14.29892578 113.8484082 -13.76269531 113.16259766 C13.88092795 78.0872423 13.88092795 78.0872423 21.16015625 35.6796875 C18.34979608 23.77160323 10.59841787 14.75621816 0.5546875 8.15234375 C-0.63060547 7.42337891 -0.63060547 7.42337891 -1.83984375 6.6796875 C-2.61972656 6.16277344 -3.39960938 5.64585938 -4.203125 5.11328125 C-23.80343235 -5.54347845 -46.59203485 3.58474942 -60.015625 19.25 Z " fill="#FBF8F5" transform="translate(148.83984375,40.3203125)"/>
<path d="M0 0 C2.14905872 2.02930053 3.78519396 4.03635927 5.33984375 6.546875 C5.76330078 7.2275 6.18675781 7.908125 6.62304688 8.609375 C7.05681641 9.31578125 7.49058594 10.0221875 7.9375 10.75 C8.36740234 11.4409375 8.79730469 12.131875 9.24023438 12.84375 C10.09473713 14.22340241 10.94102896 15.60817601 11.77880859 16.99804688 C12.56798349 18.29177622 13.38208537 19.57076763 14.22509766 20.83007812 C17.03415694 25.20434183 17.27046818 27.92397435 16.5 33 C15.80376243 39.3742915 16.38246822 41.84775776 20 47 C20.25 49.9375 20.25 49.9375 20 52 C17.1900056 54.00302165 15.95603969 53.99427448 12.4609375 53.5390625 C11.09691252 53.24366856 9.7349779 52.93849934 8.375 52.625 C-4.52454976 49.99054404 -12.14779835 51.23570541 -24.140625 57.03515625 C-27.84127202 58.76480649 -30.06501376 59.31166208 -34 58 C-35.67583201 52.07013288 -34.45146338 48.82276473 -31.5234375 43.484375 C-28.89191022 39.19296129 -26.03229604 35.10796664 -22.53125 31.4765625 C-16.96360183 25.64237798 -14.17763382 18.30479728 -11 11 C-8.03 11 -5.06 11 -2 11 C-2 9.68 -2 8.36 -2 7 C-14.54 7 -27.08 7 -40 7 C-40 6.67 -40 6.34 -40 6 C-26.8 5.67 -13.6 5.34 0 5 C0 3.35 0 1.7 0 0 Z " fill="#C8DECB" transform="translate(83,117)"/>
<path d="M0 0 C1.918125 -0.01836914 1.918125 -0.01836914 3.875 -0.03710938 C5.70804688 -0.04000977 5.70804688 -0.04000977 7.578125 -0.04296875 C8.6909082 -0.04707764 9.80369141 -0.05118652 10.95019531 -0.05541992 C13.75 0.1875 13.75 0.1875 16.75 2.1875 C16.03457031 2.63738281 15.31914062 3.08726562 14.58203125 3.55078125 C9.33506879 6.93788897 4.43575599 10.34675672 -0.23413086 14.48413086 C-9.58292103 22.76464683 -15.87863042 25.64080864 -28.375 24.9375 C-31.33875171 24.7248986 -34.29143919 24.46695338 -37.25 24.1875 C-31.09965831 15.74103075 -31.09965831 15.74103075 -27.25 12.1875 C-27.91 11.1975 -28.57 10.2075 -29.25 9.1875 C-28.08296164 7.85677314 -26.89021745 6.54856969 -25.6875 5.25 C-25.02621094 4.51910156 -24.36492187 3.78820312 -23.68359375 3.03515625 C-17.56844774 -1.60764321 -7.35559936 0.00375286 0 0 Z " fill="#A8E1E1" transform="translate(191.25,126.8125)"/>
<path d="M0 0 C2.51665514 3.7749827 1.96829052 4.94511046 1.1875 9.3125 C0.99542969 10.42238281 0.80335938 11.53226563 0.60546875 12.67578125 C0.40566406 13.77277344 0.20585937 14.86976562 0 16 C-0.17789063 17.54494141 -0.17789063 17.54494141 -0.359375 19.12109375 C-1.09983346 22.44864182 -2.27396662 24.14116557 -4.4375 26.75 C-5.05496094 27.50796875 -5.67242187 28.2659375 -6.30859375 29.046875 C-8 31 -8 31 -10 33 C-9.67 33.66 -9.34 34.32 -9 35 C-9.66 35 -10.32 35 -11 35 C-11.33 35.99 -11.66 36.98 -12 38 C-10.35 38.33 -8.7 38.66 -7 39 C-7.95729916 40.12588014 -8.91587895 41.2506715 -9.875 42.375 C-10.40867188 43.00148437 -10.94234375 43.62796875 -11.4921875 44.2734375 C-12.61432007 45.55836651 -13.79371975 46.79371975 -15 48 C-15.99 48 -16.98 48 -18 48 C-18.27199219 48.73347656 -18.54398438 49.46695313 -18.82421875 50.22265625 C-21.17918849 55.78539208 -24.83459863 60.73484973 -28.75 65.3125 C-30.67603076 67.61303674 -31.72694602 69.35027138 -33 72 C-33.76721897 73.43005441 -34.55922613 74.84707678 -35.375 76.25 C-35.77460938 76.95640625 -36.17421875 77.6628125 -36.5859375 78.390625 C-37.28589844 79.18726563 -37.28589844 79.18726563 -38 80 C-39.32 80 -40.64 80 -42 80 C-41.01 81.32 -40.02 82.64 -39 84 C-41.36345356 85.96954464 -43.20439816 86.98387294 -46.3125 87.046875 C-48.90429344 86.80982072 -51.43552542 86.44145885 -54 86 C-55.8871875 85.7215625 -55.8871875 85.7215625 -57.8125 85.4375 C-62.34034248 83.39553182 -63.91861022 80.39043157 -66 76 C-67.3125 72.5 -67.3125 72.5 -68 70 C-67.01 69.01 -67.01 69.01 -66 68 C-65.3709375 68.7940625 -64.741875 69.588125 -64.09375 70.40625 C-59.65449213 76.0869258 -59.65449213 76.0869258 -53.73046875 79.87109375 C-48.90395054 80.02797866 -46.38502735 78.1415002 -43 75 C-40.49667787 72.00991036 -38.18347354 68.89188411 -35.875 65.75 C-35.21556396 64.85974121 -34.55612793 63.96948242 -33.87670898 63.05224609 C-19.33492708 43.32112696 -6.2708158 23.99725601 0 0 Z " fill="#C2B8AE" transform="translate(177,89)"/>
<path d="M0 0 C0.33 0 0.66 0 1 0 C1 13.86 1 27.72 1 42 C-15.83 42 -32.66 42 -50 42 C-50 41.67 -50 41.34 -50 41 C-49.030625 40.9484375 -48.06125 40.896875 -47.0625 40.84375 C-34.3544792 39.87469745 -22.60834995 35.64751496 -13 27 C-6.27246628 18.77590473 -1.83831473 10.44936793 0 0 Z " fill="#99B7C6" transform="translate(249,208)"/>
<path d="M0 0 C12.87 0 25.74 0 39 0 C36.62327109 1.18836446 34.23601681 2.35658821 31.828125 3.48046875 C18.64053828 9.77192661 9.69793125 17.19100462 4.1875 31.1875 C2.96652961 35.10745756 1.92817999 39.00168619 1 43 C0.67 43 0.34 43 0 43 C0 28.81 0 14.62 0 0 Z " fill="#ECF2F8" transform="translate(0,0)"/>
<path d="M0 0 C0.144375 0.7425 0.28875 1.485 0.4375 2.25 C0.91855534 4.90291347 0.91855534 4.90291347 1.6875 7 C2 9 2 9 1 11.3125 C-0.36588162 14.98330685 -0.02430351 17.24422047 1 21 C3.38118166 23.22168366 3.38118166 23.22168366 6 25 C8.03352875 28.00187578 8.37875195 30.40185644 8 34 C7.34 34.66 6.68 35.32 6 36 C2.6719668 35.91045651 -0.57484519 35.622681 -3.8828125 35.27734375 C-8.48660727 34.8751535 -11.60435829 35.34385171 -16 37 C-18.71061275 37.22663986 -21.27148292 37.0940868 -24 37 C-23.63765284 34.21176931 -23.16769384 33.15578859 -21.07421875 31.2109375 C-20.28660156 30.60507813 -19.49898437 29.99921875 -18.6875 29.375 C-13.70532819 25.13502178 -11.95812159 21.11413476 -10 15 C-9.47500754 13.72218817 -8.93504328 12.45034269 -8.375 11.1875 C-7.5306812 9.23021551 -6.72846899 7.25328973 -6 5.25 C-4.67442398 2.26745395 -3.45660812 0 0 0 Z " fill="#CBE3CE" transform="translate(82,128)"/>
<path d="M0 0 C13.53 0 27.06 0 41 0 C41 11.22 41 22.44 41 34 C38.327664 30.43688534 37.22736029 28.15414253 36 24 C35.34 24 34.68 24 34 24 C32.62464661 22.02866014 31.29788956 20.02318078 30 18 C23.75271408 9.41841503 12.78832979 3.42912206 2.4375 1.25 C1.633125 1.1675 0.82875 1.085 0 1 C0 0.67 0 0.34 0 0 Z " fill="#E8EDF4" transform="translate(209,0)"/>
<path d="M0 0 C19.54776815 8.45703429 19.54776815 8.45703429 40.1875 8.0625 C40.1875 8.3925 40.1875 8.7225 40.1875 9.0625 C47.47781024 9.3119783 54.09423679 8.78580907 61.1875 7.0625 C60.34765625 9.01953125 60.34765625 9.01953125 59.1875 11.0625 C56.625 11.75 56.625 11.75 53.1875 12.0625 C51.58286119 12.22455789 49.97870036 12.39140458 48.375 12.5625 C47.60542969 12.6346875 46.83585937 12.706875 46.04296875 12.78125 C44.17562664 12.87665709 44.17562664 12.87665709 43.1875 14.0625 C41.06441847 14.16192806 38.93790328 14.19219184 36.8125 14.1875 C35.64976562 14.19007813 34.48703125 14.19265625 33.2890625 14.1953125 C30.1875 14.0625 30.1875 14.0625 27.1875 13.0625 C25.41898261 12.75710453 23.6477901 12.46702707 21.875 12.1875 C17.48693124 11.41857623 14.11400641 10.2127297 10.1875 8.0625 C9.01622559 7.83228149 9.01622559 7.83228149 7.82128906 7.59741211 C5.12105455 7.04900519 2.92949351 6.19716867 0.421875 5.06640625 C-0.46886719 4.67259766 -1.35960937 4.27878906 -2.27734375 3.87304688 C-4.11964651 3.04749886 -5.96081435 2.21941299 -7.80078125 1.38867188 C-18.05592062 -3.13391836 -28.70446299 -6.20780868 -39.75 -2.625 C-48.8438939 1.38490597 -55.64007676 10.55549877 -61.8125 18.0625 C-62.1425 17.4025 -62.4725 16.7425 -62.8125 16.0625 C-56.44829683 5.99167301 -49.83262357 -3.83920173 -37.8125 -7.25 C-24.60990598 -9.90584096 -12.087395 -4.93054081 0 0 Z " fill="#9CDEDF" transform="translate(112.8125,206.9375)"/>
<path d="M0 0 C2.56511246 2.56511246 2.72368132 4.65788071 3.4375 8.125 C3.90475673 10.22082328 3.90475673 10.22082328 6 12 C6.56520003 14.65537372 6.73788198 17.29144713 7 20 C7.99 19.34 8.98 18.68 10 18 C10.40992188 18.49371094 10.81984375 18.98742187 11.2421875 19.49609375 C12.05042969 20.45708984 12.05042969 20.45708984 12.875 21.4375 C13.40867187 22.07558594 13.94234375 22.71367187 14.4921875 23.37109375 C15.9222757 25.10805004 15.9222757 25.10805004 18 26 C18 26.66 18 27.32 18 28 C18.763125 28.28875 19.52625 28.5775 20.3125 28.875 C23 30 23 30 26 32 C26.33 33.65 26.66 35.3 27 37 C18.09 37 9.18 37 0 37 C0 24.79 0 12.58 0 0 Z " fill="#CFD5DD" transform="translate(0,213)"/>
<path d="M0 0 C2.35795843 0.00934066 4.71592666 0.01645084 7.07389832 0.0214386 C13.24060475 0.04040951 19.40671007 0.08942453 25.57318115 0.1449585 C31.88138704 0.19636555 38.1896913 0.21899828 44.49804688 0.24414063 C56.84661637 0.29755318 69.19474232 0.38274494 81.54296875 0.48828125 C81.54296875 0.81828125 81.54296875 1.14828125 81.54296875 1.48828125 C79.86072708 1.50041153 79.86072708 1.50041153 78.14450073 1.51278687 C67.52370867 1.59060864 56.90303907 1.67843569 46.28240776 1.77580833 C40.82355109 1.82554172 35.36471165 1.87187196 29.90576172 1.91015625 C24.62774437 1.94730133 19.34987984 1.99373649 14.07199478 2.04634476 C12.06842888 2.06473473 10.06483042 2.07989806 8.06121445 2.09162521 C-19.58464553 1.99926166 -19.58464553 1.99926166 -43.45703125 14.48828125 C-44.13636719 15.07480469 -44.81570312 15.66132813 -45.515625 16.265625 C-56.68862257 26.59378344 -59.92384608 39.3467103 -60.56881714 54.03384399 C-60.633346 56.7856413 -60.67279285 59.53667948 -60.703125 62.2890625 C-60.73602325 64.33789554 -60.76923549 66.38672356 -60.80273438 68.43554688 C-60.85033037 71.63286334 -60.89488905 74.83015383 -60.93383789 78.02758789 C-60.97347644 81.1357725 -61.02498841 84.24358347 -61.078125 87.3515625 C-61.08653915 88.30887772 -61.09495331 89.26619293 -61.10362244 90.2525177 C-61.12026443 91.14412094 -61.13690643 92.03572418 -61.15405273 92.9543457 C-61.1643602 93.73550247 -61.17466766 94.51665924 -61.18528748 95.32148743 C-61.48814284 97.73635465 -62.2563132 99.38730946 -63.45703125 101.48828125 C-63.55051642 94.16792631 -63.62118789 86.84770413 -63.66427994 79.52686882 C-63.6849825 76.12593076 -63.7129731 72.72540684 -63.75878906 69.32470703 C-63.80782689 65.39735391 -63.83011909 61.47057435 -63.84765625 57.54296875 C-63.86830139 56.34654755 -63.88894653 55.15012634 -63.91021729 53.91744995 C-63.9142904 38.27680873 -58.97630834 24.80122943 -48.3515625 13.296875 C-34.27989215 -0.13649278 -18.29472152 -0.21395969 0 0 Z " fill="#F9E48F" transform="translate(63.45703125,-0.48828125000000006)"/>
<path d="M0 0 C2.51665514 3.7749827 1.96829052 4.94511046 1.1875 9.3125 C0.89939453 10.97732422 0.89939453 10.97732422 0.60546875 12.67578125 C0.40566406 13.77277344 0.20585937 14.86976562 0 16 C-0.11859375 17.02996094 -0.2371875 18.05992188 -0.359375 19.12109375 C-1.09983346 22.44864182 -2.27396662 24.14116557 -4.4375 26.75 C-5.05496094 27.50796875 -5.67242187 28.2659375 -6.30859375 29.046875 C-8 31 -8 31 -10 33 C-9.67 33.66 -9.34 34.32 -9 35 C-9.66 35 -10.32 35 -11 35 C-11.33 35.99 -11.66 36.98 -12 38 C-10.35 38.33 -8.7 38.66 -7 39 C-7.95729916 40.12588014 -8.91587895 41.2506715 -9.875 42.375 C-10.40867188 43.00148437 -10.94234375 43.62796875 -11.4921875 44.2734375 C-12.61432007 45.55836651 -13.79371975 46.79371975 -15 48 C-15.99 48 -16.98 48 -18 48 C-18.33 48.99 -18.66 49.98 -19 51 C-19.99 51 -20.98 51 -22 51 C-22.22816406 51.69996094 -22.45632812 52.39992187 -22.69140625 53.12109375 C-24.26613949 56.58550688 -26.46109381 59.22160113 -28.9375 62.0625 C-32.43927435 66.11680986 -32.43927435 66.11680986 -35.69140625 70.37109375 C-36.12324219 70.90863281 -36.55507812 71.44617188 -37 72 C-37.66 72 -38.32 72 -39 72 C-37.43054397 67.12347591 -34.60211798 63.6078409 -31.5 59.625 C-17.53474818 41.28380137 -5.50582084 22.63182144 0 0 Z " fill="#B2B6A4" transform="translate(177,89)"/>
<path d="M0 0 C4.55320682 -0.04979112 9.10625181 -0.08590298 13.65966797 -0.10986328 C15.20559453 -0.11986197 16.75150246 -0.13346538 18.29736328 -0.15087891 C20.53162255 -0.17539951 22.76562975 -0.18654451 25 -0.1953125 C25.68054443 -0.20563507 26.36108887 -0.21595764 27.06225586 -0.22659302 C39.03479142 -0.22933298 51.88046143 5.21898896 60.6015625 13.453125 C67 20.53072626 67 20.53072626 67 24 C67.66 24 68.32 24 69 24 C74.04218809 31.95930347 74.68163989 38.59986243 74.48828125 47.8828125 C74.48120651 49.17822968 74.47413177 50.47364685 74.46684265 51.80831909 C74.44793782 55.21832354 74.39898725 58.62722822 74.34332275 62.0368042 C74.29176754 65.52959321 74.2692521 69.02256351 74.24414062 72.515625 C74.1908464 79.34419595 74.10574118 86.17204488 74 93 C73.67 93 73.34 93 73 93 C72.970271 91.25481079 72.970271 91.25481079 72.93994141 89.47436523 C72.86285644 85.0850147 72.77431446 80.69595229 72.68261719 76.30688477 C72.64474616 74.42087565 72.60982732 72.53480453 72.578125 70.64868164 C72.24281482 40.37040193 72.24281482 40.37040193 57 15 C40.51749496 0.94535986 20.52496151 1.61732981 0 1 C0 0.67 0 0.34 0 0 Z " fill="#B0DFDA" transform="translate(176,0)"/>
<path d="M0 0 C3.67889913 0.21022281 4.97774115 0.97976468 7.75 3.5 C11.43606365 6.75965526 15.16585945 7.29476467 20 7 C23.94213814 5.77212091 26.31057947 4.70911826 29.1875 1.75 C29.785625 1.1725 30.38375 0.595 31 0 C33.25 0.25 33.25 0.25 35 1 C35.495 2.98 35.495 2.98 36 5 C29.26785047 11.24770204 24.95678131 14.47367336 15.5625 14.25 C10.12676814 13.7196847 6.295134 12.04712962 2.0625 8.625 C-0.05296721 5.93258719 -0.81153961 4.39228699 -1 1 C-0.67 0.67 -0.34 0.34 0 0 Z " fill="#FBF5F3" transform="translate(108,96)"/>
<path d="M0 0 C4.75 0.75 4.75 0.75 7 3 C5.948125 3.5259375 5.948125 3.5259375 4.875 4.0625 C1.21195759 6.53107206 -1.26396369 9.56820188 -4 13 C-2.68 13.33 -1.36 13.66 0 14 C-0.928125 14.70125 -1.85625 15.4025 -2.8125 16.125 C-5.92256088 18.69481556 -7.31991937 21.31982337 -9 25 C-10.78330141 27.18859719 -12.13730073 28.07024689 -14.6875 29.375 C-15.450625 29.91125 -16.21375 30.4475 -17 31 C-17 31.825 -17 32.65 -17 33.5 C-17 34.325 -17 35.15 -17 36 C-19.4375 37.625 -19.4375 37.625 -22 39 C-22.33 39.99 -22.66 40.98 -23 42 C-24.65 41.34 -26.3 40.68 -28 40 C-25.525 37.525 -25.525 37.525 -23 35 C-23.495 33.515 -23.495 33.515 -24 32 C-23.4225 31.979375 -22.845 31.95875 -22.25 31.9375 C-19.25212936 30.68838723 -18.51758428 28.74621194 -17.05859375 25.953125 C-16.02974047 24.05487171 -14.89848436 22.36637798 -13.625 20.625 C-8.76450187 13.96045196 -4.32390233 7.02155821 0 0 Z " fill="#B1D2CD" transform="translate(159,137)"/>
<path d="M0 0 C0.83679277 2.62394306 1.66956942 5.24904384 2.5 7.875 C2.85771484 8.99455078 2.85771484 8.99455078 3.22265625 10.13671875 C5 15.7734375 5 15.7734375 5 18 C3.5629191 18.05422947 2.12524538 18.09289723 0.6875 18.125 C-0.51326172 18.15980469 -0.51326172 18.15980469 -1.73828125 18.1953125 C-4 18 -4 18 -7 16 C-7.33 15.01 -7.66 14.02 -8 13 C-8.639375 12.566875 -9.27875 12.13375 -9.9375 11.6875 C-12.64894713 9.46904326 -13.11325118 7.32530806 -14 4 C-12.80029246 3.31793277 -11.58964795 2.65509103 -10.375 2 C-9.70210937 1.62875 -9.02921875 1.2575 -8.3359375 0.875 C-5.45806964 -0.20299733 -3.04800992 -0.13973684 0 0 Z " fill="#8AD6E3" transform="translate(221,150)"/>
<path d="M0 0 C-0.3125 1.9375 -0.3125 1.9375 -1 4 C-1.99 4.33 -2.98 4.66 -4 5 C-3.67 5.66 -3.34 6.32 -3 7 C-1.68 6.67 -0.36 6.34 1 6 C-1.05233685 8.2477975 -2.00667261 9.0022242 -5 10 C-5.804375 10.86625 -6.60875 11.7325 -7.4375 12.625 C-8.283125 13.40875 -9.12875 14.1925 -10 15 C-13.23312132 14.67335475 -15.56255979 13.18433613 -18.25 11.4375 C-18.95640625 10.98246094 -19.6628125 10.52742187 -20.390625 10.05859375 C-20.92171875 9.70925781 -21.4528125 9.35992187 -22 9 C-21.04270084 7.87411986 -20.08412105 6.7493285 -19.125 5.625 C-18.59132812 4.99851563 -18.05765625 4.37203125 -17.5078125 3.7265625 C-12.56844283 -1.92939967 -7.08176508 -1.30073236 0 0 Z " fill="#9FD5D5" transform="translate(184,128)"/>
<path d="M0 0 C0 7.59 0 15.18 0 23 C-5.94 23 -11.88 23 -18 23 C-14.87948976 17.7991496 -11.34597061 13.9745577 -7.1796875 9.62109375 C-5.1351625 7.16253412 -4.49721962 6.04379036 -4 3 C-1.42857143 0 -1.42857143 0 0 0 Z " fill="#D9DCE8" transform="translate(250,227)"/>
<path d="M0 0 C7.1604349 -0.61965302 13.36972679 0.61915423 20.20117188 2.57714844 C25.87611411 4.15790444 31.30769702 4.82153695 37 3 C37 3.33 37 3.66 37 4 C44.29031024 4.2494783 50.90673679 3.72330907 58 2 C57.16015625 3.95703125 57.16015625 3.95703125 56 6 C53.4375 6.6875 53.4375 6.6875 50 7 C48.39536119 7.16205789 46.79120036 7.32890458 45.1875 7.5 C44.03314453 7.60828125 44.03314453 7.60828125 42.85546875 7.71875 C40.98812664 7.81415709 40.98812664 7.81415709 40 9 C37.87691847 9.09942806 35.75040328 9.12969184 33.625 9.125 C32.46226562 9.12757813 31.29953125 9.13015625 30.1015625 9.1328125 C27 9 27 9 24 8 C22.23148261 7.69460453 20.4602901 7.40452707 18.6875 7.125 C14.29943124 6.35607623 10.92650641 5.1502297 7 3 C5.33480481 2.65939189 3.66842534 2.32441604 2 2 C1.34 1.34 0.68 0.68 0 0 Z " fill="#8BDAE4" transform="translate(116,212)"/>
<path d="M0 0 C1.32 0 2.64 0 4 0 C3.36 3.712 3.36 3.712 1.4375 5.25 C-0.36180874 7.44046281 -0.08886334 8.23509639 0.0625 11 C0.19387202 14.76138829 0.19387202 14.76138829 -1.625 17 C-4.65696965 18.2766188 -6.74003936 18.41616519 -10 18 C-11.875 16.875 -11.875 16.875 -13 15 C-13.39415803 11.84673574 -13.58260835 9.88924432 -11.8125 7.1875 C-9.53928665 5.69815332 -7.69286564 5.27619135 -5 5 C-4.34 5.33 -3.68 5.66 -3 6 C-2.87625 5.38125 -2.7525 4.7625 -2.625 4.125 C-2 2 -2 2 0 0 Z " fill="#BFE9E2" transform="translate(52,200)"/>
<path d="M0 0 C0.33 0 0.66 0 1 0 C1.49353702 6.29259694 1.49353702 6.29259694 -0.875 9.6875 C-1.57625 10.450625 -2.2775 11.21375 -3 12 C-3.40605469 12.88945312 -3.40605469 12.88945312 -3.8203125 13.796875 C-5.44484932 16.8307782 -7.65192055 19.05401396 -10 21.5625 C-12.57444258 24.32029678 -14.90636463 26.85954694 -17 30 C-19.3828125 30.29296875 -19.3828125 30.29296875 -22.125 30.1875 C-23.03507813 30.16042969 -23.94515625 30.13335937 -24.8828125 30.10546875 C-25.58148438 30.07066406 -26.28015625 30.03585938 -27 30 C-24.00186671 26.62710005 -20.72142263 24.53349351 -16.8984375 22.23828125 C-14.62833029 20.75757346 -12.87405087 18.94612974 -11 17 C-10.34 17 -9.68 17 -9 17 C-8.896875 16.278125 -8.79375 15.55625 -8.6875 14.8125 C-7.42868227 9.6627911 -4.66496073 6.66496073 -1 3 C-0.67 2.01 -0.34 1.02 0 0 Z " fill="#B8BDC9" transform="translate(249,220)"/>
<path d="M0 0 C2.4375 2.1875 2.4375 2.1875 4 5 C4 8.22337198 3.46243134 9.4861874 1.3125 11.875 C-1.84079648 13.40903612 -3.6773328 12.93901464 -7 12 C-9 10 -9 10 -9.3125 6.5625 C-9 3 -9 3 -7.875 1.0625 C-5.0300175 -0.54965675 -3.2088071 -0.52388687 0 0 Z " fill="#C9ECF3" transform="translate(184,186)"/>
<path d="M0 0 C2.38918727 1.56532959 2.91041439 2.75044008 3.875 5.4375 C4 8 4 8 3 10.3125 C1 12 1 12 -2.5 12.4375 C-6 12 -6 12 -7.9375 10.875 C-9.50422245 8.11019567 -9.38976435 6.11811483 -9 3 C-6.79086995 -0.68188342 -4.01844539 -0.50230567 0 0 Z " fill="#C0E4EF" transform="translate(153,203)"/>
<path d="M0 0 C3.03334628 2.446247 3.94350088 3.76593221 4.875 7.625 C4.91625 8.73875 4.9575 9.8525 5 11 C4.34 11.66 3.68 12.32 3 13 C-0.3280332 12.91045651 -3.57484519 12.622681 -6.8828125 12.27734375 C-11.43428951 11.87972401 -14.68219865 12.2077051 -19 14 C-18.8125 10.6875 -18.8125 10.6875 -18 7 C-15.26776059 4.58001652 -13.48797841 4.05855741 -9.875 3.625 C-7 4 -7 4 -5.125 5.25 C-4 7 -4 7 -4 11 C-2.02 11 -0.04 11 2 11 C2.79356801 9.25328412 2.79356801 9.25328412 3 7 C1.60907108 4.37612865 1.60907108 4.37612865 0 2 C0 1.34 0 0.68 0 0 Z " fill="#AFDBD1" transform="translate(85,151)"/>
<path d="M0 0 C0.99 0 1.98 0 3 0 C1.68938409 4.23429756 0.05643741 8.07407404 -2 12 C-2.99 12 -3.98 12 -5 12 C-5.22816406 12.69996094 -5.45632812 13.39992187 -5.69140625 14.12109375 C-7.26613949 17.58550688 -9.46109381 20.22160113 -11.9375 23.0625 C-15.43927435 27.11680986 -15.43927435 27.11680986 -18.69140625 31.37109375 C-19.33916016 32.17740234 -19.33916016 32.17740234 -20 33 C-20.66 33 -21.32 33 -22 33 C-20.42057208 28.06190908 -17.5125738 24.47104098 -14.375 20.4375 C-9.79805012 14.47886832 -5.57499613 8.45676793 -1.62109375 2.0625 C-1.08613281 1.381875 -0.55117187 0.70125 0 0 Z " fill="#C7B3A7" transform="translate(160,128)"/>
<path d="M0 0 C1.9375 1.125 1.9375 1.125 3 3 C2.77669287 6.64734979 2.61627165 8.38372835 0 11 C-3.09771665 11.32954432 -5.17331023 11.45334601 -7.9375 9.9375 C-9.64787795 6.81857551 -8.80513863 4.34442199 -8 1 C-5.20129973 -0.39935013 -3.09501208 -0.25265405 0 0 Z " fill="#FBF7F3" transform="translate(146,74)"/>
<path d="M0 0 C1.9375 1.125 1.9375 1.125 3 3 C2.77669287 6.64734979 2.61627165 8.38372835 0 11 C-3.09771665 11.32954432 -5.17331023 11.45334601 -7.9375 9.9375 C-9.64787795 6.81857551 -8.80513863 4.34442199 -8 1 C-5.20129973 -0.39935013 -3.09501208 -0.25265405 0 0 Z " fill="#FBF7F4" transform="translate(111,74)"/>
<path d="M0 0 C3.29078593 2.79716804 5.06305458 6.19528578 7 10 C6.67 10.66 6.34 11.32 6 12 C3.525 11.505 3.525 11.505 1 11 C0.67 13.31 0.34 15.62 0 18 C-0.33 18 -0.66 18 -1 18 C-1.495 12.555 -1.495 12.555 -2 7 C-14.54 7 -27.08 7 -40 7 C-40 6.67 -40 6.34 -40 6 C-26.8 5.67 -13.6 5.34 0 5 C0 3.35 0 1.7 0 0 Z " fill="#EBE0B3" transform="translate(83,117)"/>
<path d="M0 0 C4.75 0.75 4.75 0.75 7 3 C6.319375 3.33 5.63875 3.66 4.9375 4 C1.55270079 6.30454414 -0.73725869 8.93953075 -3.3515625 12.0625 C-5 14 -5 14 -6.58203125 15.53125 C-8.08875103 17.09192944 -9.03159269 18.59678651 -10.0625 20.5 C-11.29816131 22.76289783 -12.56225496 24.84338244 -14 27 C-14.99 26.67 -15.98 26.34 -17 26 C-16.125 24.6875 -15.25 23.375 -14.375 22.0625 C-13.82714844 21.24007812 -13.27929688 20.41765625 -12.71484375 19.5703125 C-11.62612864 17.93847983 -10.53523624 16.30809605 -9.44140625 14.6796875 C-6.19780125 9.84376732 -3.05333891 4.95829815 0 0 Z " fill="#B9CBC2" transform="translate(159,137)"/>
<path d="M0 0 C0.66 0 1.32 0 2 0 C2 1.32 2 2.64 2 4 C2.66 4 3.32 4 4 4 C7.56071393 10.50128044 7.38981344 16.41621867 7.29296875 23.71484375 C7.28872391 24.92572159 7.28447906 26.13659943 7.28010559 27.38417053 C7.26336989 31.23551057 7.22572572 35.08631923 7.1875 38.9375 C7.17244662 41.55533096 7.15875936 44.17317016 7.14648438 46.79101562 C7.11348299 53.19419042 7.06333386 59.59705723 7 66 C6.67 66 6.34 66 6 66 C5.98018066 64.83654053 5.96036133 63.67308105 5.93994141 62.47436523 C5.86285644 58.0850147 5.77431446 53.69595229 5.68261719 49.30688477 C5.64474616 47.42087565 5.60982732 45.53480453 5.578125 43.64868164 C5.32546823 28.79325313 4.99884313 14.16338888 0 0 Z " fill="#90DDDB" transform="translate(243,27)"/>
<path d="M0 0 C2.81444207 0.97049727 3.9907325 1.98785638 5.8125 4.375 C7.55200199 9.6850587 6.73467591 14.5297625 6 20 C3.7448078 17.7448078 3.02276532 15.9952413 2 13 C2 12.01 2 11.02 2 10 C1.34 10 0.68 10 0 10 C-1.36952673 7.26094655 -1.12621361 5.02912668 -1 2 C-0.67 1.34 -0.34 0.68 0 0 Z " fill="#D1BEA8" transform="translate(93,135)"/>
<path d="M0 0 C2.9375 1.5625 2.9375 1.5625 5 3 C4.67 4.32 4.34 5.64 4 7 C-4.11722488 7.62440191 -4.11722488 7.62440191 -7.5625 5.1875 C-9 3 -9 3 -9 0 C-5.84760408 -1.57619796 -3.38428252 -0.68832865 0 0 Z " fill="#92D9E0" transform="translate(177,157)"/>
<path d="M0 0 C0.99 0.33 1.98 0.66 3 1 C2.01 2.98 1.02 4.96 0 7 C-1.32 7 -2.64 7 -4 7 C-3.01 8.32 -2.02 9.64 -1 11 C-3.49031084 13.07525903 -5.29089974 14.00649557 -8.55859375 13.9765625 C-11.05338223 13.71469818 -13.52365349 13.39910051 -16 13 C-16 12.34 -16 11.68 -16 11 C-14.96875 10.7525 -13.9375 10.505 -12.875 10.25 C-7.85689818 8.79739158 -4.11016003 6.62823471 -1.125 2.25 C-0.75375 1.5075 -0.3825 0.765 0 0 Z " fill="#CDC2BA" transform="translate(139,162)"/>
<path d="M0 0 C1.34578125 0.70576172 1.34578125 0.70576172 2.71875 1.42578125 C12.00987389 6.1209981 20.70671921 8.57977072 31 10 C31 10.33 31 10.66 31 11 C23.74 11 16.48 11 9 11 C8.34 9.35 7.68 7.7 7 6 C5.32374051 4.58146815 5.32374051 4.58146815 3.375 3.6875 C2.26125 3.130625 1.1475 2.57375 0 2 C0 1.34 0 0.68 0 0 Z " fill="#93BEC4" transform="translate(18,239)"/>
<path d="M0 0 C0.33 0 0.66 0 1 0 C1.3125 3.25 1.3125 3.25 1 7 C-1.5 9.4375 -1.5 9.4375 -4 11 C-3.49172849 6.62886504 -2.54826592 3.61004338 0 0 Z M-5 11 C-4.34 11.33 -3.68 11.66 -3 12 C-4.6132652 15.87733625 -7.14949362 18.51726426 -10 21.5625 C-12.57444258 24.32029678 -14.90636463 26.85954694 -17 30 C-18.32 29.67 -19.64 29.34 -21 29 C-20.32453125 28.40832031 -19.6490625 27.81664062 -18.953125 27.20703125 C-18.06109375 26.41683594 -17.1690625 25.62664062 -16.25 24.8125 C-15.36828125 24.03519531 -14.4865625 23.25789062 -13.578125 22.45703125 C-9.97474602 19.02290189 -7.02933542 15.56600469 -5 11 Z " fill="#C4C8D4" transform="translate(249,220)"/>
<path d="M0 0 C3.4375 0.875 3.4375 0.875 5.4375 3.875 C5.5625 6.5625 5.5625 6.5625 5.4375 8.875 C4.4475 9.37 4.4475 9.37 3.4375 9.875 C2.7775 7.565 2.1175 5.255 1.4375 2.875 C-0.2125 3.205 -1.8625 3.535 -3.5625 3.875 C-3.5625 5.525 -3.5625 7.175 -3.5625 8.875 C-1.5825 9.535 0.3975 10.195 2.4375 10.875 C2.1075 11.535 1.7775 12.195 1.4375 12.875 C-3.98943662 12.39260563 -3.98943662 12.39260563 -6.5 10.125 C-7.5625 7.875 -7.5625 7.875 -7.4375 5.3125 C-5.82990391 0.83419661 -4.92782971 -0.17290631 0 0 Z " fill="#D3F1ED" transform="translate(99.5625,186.125)"/>
<path d="M0 0 C0.33 0 0.66 0 1 0 C1.08160748 1.89510699 1.13946459 3.79124504 1.1875 5.6875 C1.22230469 6.74324219 1.25710937 7.79898438 1.29296875 8.88671875 C0.96409165 12.38158604 0.12293836 14.22938553 -2 17 C-2.66 17 -3.32 17 -4 17 C-4.309375 18.36125 -4.309375 18.36125 -4.625 19.75 C-6.3204079 23.75732776 -8.27549784 24.89484661 -12 27 C-10.53767917 23.94941684 -8.85634932 21.11650731 -7.0625 18.25 C-3.56091079 12.45102665 -1.05540693 6.75460438 0 0 Z " fill="#9AC1D0" transform="translate(249,208)"/>
<path d="M0 0 C1.65 0 3.3 0 5 0 C4.01 0.495 4.01 0.495 3 1 C2.67 1.99 2.34 2.98 2 4 C3.65 4.33 5.3 4.66 7 5 C6.04270084 6.12588014 5.08412105 7.2506715 4.125 8.375 C3.59132812 9.00148437 3.05765625 9.62796875 2.5078125 10.2734375 C1.38567993 11.55836651 0.20628025 12.79371975 -1 14 C-1.99 14 -2.98 14 -4 14 C-2.94124926 10.59687262 -1.99097846 7.98646769 0 5 C-0.66 5 -1.32 5 -2 5 C-1.34 3.35 -0.68 1.7 0 0 Z " fill="#AFBBB6" transform="translate(163,123)"/>
<path d="M0 0 C0 0.33 0 0.66 0 1 C-1.39664108 0.88437394 -2.79231199 0.757008 -4.1875 0.625 C-4.96480469 0.55539063 -5.74210937 0.48578125 -6.54296875 0.4140625 C-9 0 -9 0 -11.30078125 -1.0234375 C-14.8725687 -2.31569056 -18.25370641 -2.29147188 -22 -2.25 C-22.69867188 -2.25773438 -23.39734375 -2.26546875 -24.1171875 -2.2734375 C-28.24701461 -2.25785325 -31.23049664 -1.58857642 -35 0 C-35.99 -0.33 -36.98 -0.66 -38 -1 C-25.2829214 -7.80215832 -13.0589172 -4.50983627 0 0 Z " fill="#ABE3E1" transform="translate(106,204)"/>
<path d="M0 0 C0.66 0.99 1.32 1.98 2 3 C-0.22252725 7.44505449 -2.6757636 9.57842762 -7 12 C-9.6875 12.875 -9.6875 12.875 -12 13 C-12.99 12.34 -13.98 11.68 -15 11 C-15 10.34 -15 9.68 -15 9 C-14.41992188 8.93683594 -13.83984375 8.87367188 -13.2421875 8.80859375 C-7.3262825 7.8811829 -4.59835273 6.24442504 -0.99609375 1.4609375 C-0.50302734 0.73777344 -0.50302734 0.73777344 0 0 Z " fill="#D2B7AE" transform="translate(137,160)"/>
<path d="M0 0 C4.55320682 -0.04979112 9.10625181 -0.08590298 13.65966797 -0.10986328 C15.20559453 -0.11986197 16.75150246 -0.13346538 18.29736328 -0.15087891 C20.53162255 -0.17539951 22.76562975 -0.18654451 25 -0.1953125 C25.68054443 -0.20563507 26.36108887 -0.21595764 27.06225586 -0.22659302 C32.04016407 -0.22773223 36.24801892 0.65886472 41 2 C41 2.66 41 3.32 41 4 C39.576875 3.80083984 39.576875 3.80083984 38.125 3.59765625 C25.44643083 1.92112504 12.77536192 1.39686059 0 1 C0 0.67 0 0.34 0 0 Z " fill="#BDE1CE" transform="translate(176,0)"/>
<path d="M0 0 C2.3532124 2.3532124 3.24157926 4.53675016 4.625 7.5625 C7.57969856 13.62548294 11.26358091 18.23953817 16 23 C13 23 13 23 11.39453125 21.6875 C10.87246094 21.130625 10.35039062 20.57375 9.8125 20 C9.28269531 19.443125 8.75289062 18.88625 8.20703125 18.3125 C7.60955078 17.6628125 7.60955078 17.6628125 7 17 C6.34 17.66 5.68 18.32 5 19 C4 18 4 18 3.5625 14.625 C3.24699783 10.91489453 3.24699783 10.91489453 1 8 C-0.35439668 5.29120665 -0.06501451 2.99066732 0 0 Z " fill="#A3C5C8" transform="translate(2,215)"/>
<path d="M0 0 C4.55555556 0.55555556 4.55555556 0.55555556 6 2 C6.125 4.5 6.125 4.5 6 7 C5 8 5 8 2 8.125 C-1 8 -1 8 -2 7 C-2.1875 4.5625 -2.1875 4.5625 -2 2 C-1.34 1.34 -0.68 0.68 0 0 Z " fill="#5496EA" transform="translate(179,188)"/>
<path d="M0 0 C2.00720923 0.28674418 4.0085944 0.61866701 6 1 C6.04254356 2.99954746 6.04080783 5.00041636 6 7 C5 8 5 8 2.5625 8.1875 C0 8 0 8 -2 6 C-1.44444444 1.44444444 -1.44444444 1.44444444 0 0 Z " fill="#A973E5" transform="translate(148,205)"/>
<path d="M0 0 C2.4375 0.1875 2.4375 0.1875 3.4375 1.1875 C3.625 3.625 3.625 3.625 3.4375 6.1875 C2.7775 6.8475 2.1175 7.5075 1.4375 8.1875 C-1.1875 7.8125 -1.1875 7.8125 -3.5625 7.1875 C-4.1875 4.8125 -4.1875 4.8125 -4.5625 2.1875 C-2.5625 0.1875 -2.5625 0.1875 0 0 Z " fill="#F7D254" transform="translate(45.5625,207.8125)"/>
<path d="M0 0 C2.625 0.375 2.625 0.375 5 1 C5.625 3.375 5.625 3.375 6 6 C4 8 4 8 1.4375 8.1875 C-1 8 -1 8 -2 7 C-2.1875 4.5625 -2.1875 4.5625 -2 2 C-1.34 1.34 -0.68 0.68 0 0 Z " fill="#76CE8B" transform="translate(97,188)"/>
<path d="M0 0 C-1.3303125 0.5878125 -1.3303125 0.5878125 -2.6875 1.1875 C-6.121318 2.84891941 -6.121318 2.84891941 -8.625 5.75 C-9.40875 6.4925 -10.1925 7.235 -11 8 C-14.06731977 7.91236229 -14.81352381 7.18647619 -17 5 C-14.39104541 2.39104541 -12.01733462 1.89026736 -8.5 0.8125 C-7.3346875 0.44769531 -6.169375 0.08289063 -4.96875 -0.29296875 C-2 -1 -2 -1 0 0 Z " fill="#97D7DC" transform="translate(185,135)"/>
<path d="M0 0 C-3 2 -3 2 -5.9375 3.3125 C-10.77227457 5.97655946 -12.79848788 9.17029713 -14.625 14.25 C-16 18 -16 18 -18 19 C-15.18596536 6.82716833 -15.18596536 6.82716833 -11 3 C-7.1961651 0.65295294 -4.47413897 -0.39477697 0 0 Z " fill="#8AD6E6" transform="translate(218,195)"/>
<path d="M0 0 C2.31 0.33 4.62 0.66 7 1 C6.75 2.875 6.75 2.875 6 5 C4.68352881 5.69937532 3.34977849 6.36729133 2 7 C1.67 7.99 1.34 8.98 1 10 C-1.475 9.01 -1.475 9.01 -4 8 C-2.35 6.35 -0.7 4.7 1 3 C0.67 2.01 0.34 1.02 0 0 Z " fill="#C5D9D7" transform="translate(135,169)"/>
<path d="M0 0 C0.66 0.33 1.32 0.66 2 1 C1.34773438 1.64066406 0.69546875 2.28132812 0.0234375 2.94140625 C-4.883259 7.79744364 -9.60304566 12.67737106 -14 18 C-14.33 17.34 -14.66 16.68 -15 16 C-12.24804714 11.2987472 -9.07968133 8.1010775 -4.90234375 4.61328125 C-3.17443907 3.14793293 -1.57630241 1.62540841 0 0 Z " fill="#92DADA" transform="translate(65,207)"/>
<path d="M0 0 C1.9375 1.25 1.9375 1.25 3 3 C2.6875 5.1875 2.6875 5.1875 2 7 C1.01 5.68 0.02 4.36 -1 3 C-4.24208567 3.35049575 -5.61527704 3.56221181 -7.8125 6.0625 C-8.204375 6.701875 -8.59625 7.34125 -9 8 C-9.22223194 5.25913944 -9.34781139 3.56036279 -7.875 1.1875 C-5.12844028 -0.55198782 -3.18153026 -0.39769128 0 0 Z " fill="#D1EEF4" transform="translate(184,186)"/>
<path d="M0 0 C3.3 1.65 6.6 3.3 10 5 C10 5.99 10 6.98 10 8 C12.475 8.99 12.475 8.99 15 10 C15 10.33 15 10.66 15 11 C13.02 11 11.04 11 9 11 C8.814375 10.2575 8.62875 9.515 8.4375 8.75 C6.39087334 4.83471421 3.9124945 3.95624725 0 2 C0 1.34 0 0.68 0 0 Z " fill="#A4BAC2" transform="translate(18,239)"/>
<path d="M0 0 C-1.875 3.875 -1.875 3.875 -3 5 C-5.33297433 5.04092937 -7.66705225 5.04241723 -10 5 C-7.62417533 -0.26075462 -5.61350876 -0.1220328 0 0 Z " fill="#CDC8BD" transform="translate(174,123)"/>
<path d="M0 0 C0.33 0.66 0.66 1.32 1 2 C0.29296875 4.1015625 0.29296875 4.1015625 -0.8125 6.625 C-2.67241844 11.05276433 -3.95927869 15.31675411 -5 20 C-5.33 20 -5.66 20 -6 20 C-6.77391075 12.33255088 -6.00076654 7.77879096 -1.3125 1.58203125 C-0.879375 1.05996094 -0.44625 0.53789062 0 0 Z " fill="#DEE0DD" transform="translate(6,23)"/>
<path d="M0 0 C2.56695636 0.39491636 4.67123994 0.83561997 7 2 C7 3.32 7 4.64 7 6 C4.125 5.75 4.125 5.75 1 5 C-0.375 2.9375 -0.375 2.9375 -1 1 C-0.67 0.67 -0.34 0.34 0 0 Z " fill="#E3F5F4" transform="translate(119,199)"/>
<path d="M0 0 C3.29078593 2.79716804 5.06305458 6.19528578 7 10 C6.67 10.66 6.34 11.32 6 12 C4.125 11.875 4.125 11.875 2 11 C0.30273706 7.26602153 -0.23990744 4.07842654 0 0 Z " fill="#E5B797" transform="translate(83,117)"/>
<path d="M0 0 C2.33944736 0.28730055 4.6739143 0.61936779 7 1 C7 2.32 7 3.64 7 5 C4.69 5 2.38 5 0 5 C-0.5625 3.0625 -0.5625 3.0625 -1 1 C-0.67 0.67 -0.34 0.34 0 0 Z " fill="#E7F6F3" transform="translate(82,187)"/>
<path d="M0 0 C1.65 0 3.3 0 5 0 C6.36884358 4.51718381 5.47075246 7.58774263 4 12 C3.67 12 3.34 12 3 12 C2.92652344 10.82630859 2.92652344 10.82630859 2.8515625 9.62890625 C2.77679688 8.61699219 2.70203125 7.60507813 2.625 6.5625 C2.55539063 5.55316406 2.48578125 4.54382813 2.4140625 3.50390625 C2.27742188 2.67761719 2.14078125 1.85132812 2 1 C1.34 0.67 0.68 0.34 0 0 Z " fill="#E1CBAF" transform="translate(79,123)"/>
<path d="M0 0 C-0.3125 1.875 -0.3125 1.875 -1 4 C-4 6 -4 6 -6.1875 5.625 C-6.785625 5.41875 -7.38375 5.2125 -8 5 C-5.96115496 0.48541456 -5.19128917 0 0 0 Z " fill="#EAF6F4" transform="translate(66,193)"/>
<path d="M0 0 C1.4540625 0.0309375 1.4540625 0.0309375 2.9375 0.0625 C2.9375 1.3825 2.9375 2.7025 2.9375 4.0625 C0.6275 4.3925 -1.6825 4.7225 -4.0625 5.0625 C-4.0625 0.08290816 -4.0625 0.08290816 0 0 Z " fill="#EBF6F4" transform="translate(74.0625,188.9375)"/>
<path d="M0 0 C2.31 0.33 4.62 0.66 7 1 C7 2.32 7 3.64 7 5 C4.69 4.67 2.38 4.34 0 4 C0 2.68 0 1.36 0 0 Z " fill="#E9F6F5" transform="translate(147,172)"/>
<path d="M0 0 C1.98 0.66 3.96 1.32 6 2 C6 3.32 6 4.64 6 6 C1.25 5.125 1.25 5.125 -1 4 C-0.67 2.68 -0.34 1.36 0 0 Z " fill="#E7F6F4" transform="translate(108,194)"/>
<path d="M0 0 C2.31 0.33 4.62 0.66 7 1 C7 2.32 7 3.64 7 5 C4.03 4.505 4.03 4.505 1 4 C0.67 2.68 0.34 1.36 0 0 Z " fill="#E5F5F5" transform="translate(130,204)"/>
<path d="M0 0 C1.32 0 2.64 0 4 0 C3.42655063 2.86724686 3.1385485 3.8614515 1 6 C-0.32 6 -1.64 6 -3 6 C-2.42655063 3.13275314 -2.1385485 2.1385485 0 0 Z " fill="#E9F6F4" transform="translate(52,200)"/>
<path d="M0 0 C2.88575819 0.39803561 3.82189513 0.79009069 5.75 3.0625 C6.1625 3.701875 6.575 4.34125 7 5 C4.39417629 5.93065133 3.35801776 6.14917407 0.75 5.0625 C0.1725 4.711875 -0.405 4.36125 -1 4 C-0.67 2.68 -0.34 1.36 0 0 Z " fill="#E6F6F5" transform="translate(171,179)"/>
<path d="M0 0 C2.97 0.495 2.97 0.495 6 1 C6.33 2.32 6.66 3.64 7 5 C4.69 4.67 2.38 4.34 0 4 C0 2.68 0 1.36 0 0 Z " fill="#EAF7F6" transform="translate(159,175)"/>
<path d="M0 0 C-2.70035741 2.70035741 -5.13079914 2.71576987 -8.80859375 3.33984375 C-11.30954667 4.09325025 -12.24665796 5.12397513 -14 7 C-14.66 7 -15.32 7 -16 7 C-15.76171875 5.109375 -15.76171875 5.109375 -15 3 C-10.42464984 0.41853928 -5.19488998 -0.39960692 0 0 Z " fill="#96DDE3" transform="translate(218,145)"/>
<path d="M0 0 C1.75 2 1.75 2 2 5.6875 C1.9175 6.780625 1.835 7.87375 1.75 9 C0.76 9 -0.23 9 -1.25 9 C-0.92 8.67 -0.59 8.34 -0.25 8 C-0.20936168 6.33382885 -0.207279 4.66611905 -0.25 3 C-3.87885324 2.84850702 -3.87885324 2.84850702 -7.25 4 C-6.92 2.68 -6.59 1.36 -6.25 0 C-3.63240554 -1.02834068 -2.61369887 -1.16164394 0 0 Z " fill="#D1E8D0" transform="translate(48.25,206)"/>
<path d="M0 0 C1.32 0.33 2.64 0.66 4 1 C1.36 3.97 -1.28 6.94 -4 10 C-4.33 9.34 -4.66 8.68 -5 8 C-4.00390625 6.0546875 -4.00390625 6.0546875 -2.5625 3.875 C-2.08941406 3.15054688 -1.61632812 2.42609375 -1.12890625 1.6796875 C-0.75636719 1.12539062 -0.38382813 0.57109375 0 0 Z " fill="#BDC6BB" transform="translate(159,137)"/>
<path d="M0 0 C0.99 0 1.98 0 3 0 C1.94124926 3.40312738 0.99097846 6.01353231 -1 9 C-1.99 8.67 -2.98 8.34 -4 8 C-2.87548273 5.0280615 -1.77706209 2.66559313 0 0 Z " fill="#BAADA5" transform="translate(160,128)"/>
<path d="M0 0 C0 0.99 0 1.98 0 3 C-1.32 3.33 -2.64 3.66 -4 4 C-4 4.66 -4 5.32 -4 6 C-4.99 6 -5.98 6 -7 6 C-6.625 3.5625 -6.625 3.5625 -6 1 C-4 0 -4 0 0 0 Z " fill="#E4F5F5" transform="translate(179,201)"/>
<path d="M0 0 C4.95 0.99 4.95 0.99 10 2 C9.01 2.495 9.01 2.495 8 3 C8.33 5.31 8.66 7.62 9 10 C8.814375 9.4225 8.62875 8.845 8.4375 8.25 C6.29448878 4.89572157 3.51177437 3.82092004 0 2 C0 1.34 0 0.68 0 0 Z " fill="#AECAC6" transform="translate(119,173)"/>
<path d="M0 0 C0.556875 0.226875 1.11375 0.45375 1.6875 0.6875 C0.3571875 1.2753125 0.3571875 1.2753125 -1 1.875 C-4.43379608 3.75386955 -6.67791769 5.82045455 -9.3125 8.6875 C-9.9725 8.3575 -10.6325 8.0275 -11.3125 7.6875 C-5.19082447 -0.70146277 -5.19082447 -0.70146277 0 0 Z " fill="#80D1E5" transform="translate(218.3125,208.3125)"/>
<path d="M0 0 C0 1.32 0 2.64 0 4 C-2.31 4 -4.62 4 -7 4 C-7 3.01 -7 2.02 -7 1 C-4.53721199 -0.231394 -2.7204945 -0.07159196 0 0 Z " fill="#E9F7F7" transform="translate(167,206)"/>
<path d="M0 0 C-2.125 2.0625 -2.125 2.0625 -5 4 C-8.3125 3.75 -8.3125 3.75 -11 3 C-6.86621405 0.2441427 -4.94796454 -0.10756445 0 0 Z " fill="#CACEC8" transform="translate(138,172)"/>
<path d="M0 0 C0.99 0 1.98 0 3 0 C2.67 1.65 2.34 3.3 2 5 C0.68 5.33 -0.64 5.66 -2 6 C-1.34 4.02 -0.68 2.04 0 0 Z " fill="#E7F6F5" transform="translate(35,226)"/>
<path d="M0 0 C0.20625 0.61875 0.4125 1.2375 0.625 1.875 C2.54775888 4.84653645 4.66594527 5.13024659 8 6 C7.67 6.66 7.34 7.32 7 8 C4.125 7.6875 4.125 7.6875 1 7 C-1 4 -1 4 -0.625 1.8125 C-0.41875 1.214375 -0.2125 0.61625 0 0 Z " fill="#CAEEE7" transform="translate(94,191)"/>
<path d="M0 0 C2.31 0.33 4.62 0.66 7 1 C6.67 2.32 6.34 3.64 6 5 C4.02 4.01 2.04 3.02 0 2 C0 1.34 0 0.68 0 0 Z " fill="#F1DBD9" transform="translate(135,169)"/>
<path d="M0 0 C0.99 0 1.98 0 3 0 C2.75 2.375 2.75 2.375 2 5 C-0.0625 6.3125 -0.0625 6.3125 -2 7 C-2.99 6.34 -3.98 5.68 -5 5 C-3.68 4.67 -2.36 4.34 -1 4 C-0.67 2.68 -0.34 1.36 0 0 Z " fill="#BDE2F0" transform="translate(185,191)"/>
<path d="M0 0 C1.65 0 3.3 0 5 0 C4.01 0.495 4.01 0.495 3 1 C1.86649466 3.01669827 1.86649466 3.01669827 1 5 C0.01 5 -0.98 5 -2 5 C-1.34 3.35 -0.68 1.7 0 0 Z " fill="#D2BBAD" transform="translate(163,123)"/>
<path d="M0 0 C0.99 0.66 1.98 1.32 3 2 C1.71937515 3.7074998 0.38232443 5.37373596 -1 7 C-1.66 7 -2.32 7 -3 7 C-1.125 1.125 -1.125 1.125 0 0 Z " fill="#CED2CC" transform="translate(142,163)"/>
<path d="M0 0 C0.66 0 1.32 0 2 0 C2.625 2.875 2.625 2.875 3 6 C2.34 6.66 1.68 7.32 1 8 C0 7 0 7 -0.0625 3.4375 C-0.041875 2.303125 -0.02125 1.16875 0 0 Z " fill="#B8C4CB" transform="translate(6,226)"/>
<path d="M0 0 C1.32 0 2.64 0 4 0 C3.25 1.9375 3.25 1.9375 2 4 C-0.125 4.75 -0.125 4.75 -2 5 C-1.34 3.35 -0.68 1.7 0 0 Z " fill="#C6D6CD" transform="translate(170,123)"/>
</svg>
